<svg id="Layer_1" data-name="Layer 1" xmlns="http://www.w3.org/2000/svg" viewBox="0 0 70.87 70.87"><defs><style>.cls-1{fill:#fff;}</style></defs><title>education</title><path class="cls-1" d="M23.45,28.78c1.25-.73,2.48-1.53,3.76-2.16a38.53,38.53,0,0,1,9.66-3.3A2,2,0,0,0,38.68,21a1.71,1.71,0,0,0-2.24-1.55,39.87,39.87,0,0,0-13.16,5.22,14.73,14.73,0,0,0-4,3.73,17.54,17.54,0,0,0-1.3,2.24A2.31,2.31,0,0,0,17.86,33a4,4,0,0,1-.52,4.15,1.89,1.89,0,0,0-.44,1.48,71.37,71.37,0,0,1-.25,12,26.06,26.06,0,0,1-2.24,8.8C13.59,61,12.54,62.31,11,62.54a4.28,4.28,0,0,1-1.94-.16C7,61.71,5.42,60,3.93,58l.47-.54a34.66,34.66,0,0,0,8.79-17.35c.09-.47.14-1,.23-1.42a3.19,3.19,0,0,0-.33-2.3,4.13,4.13,0,0,1,1.16-5.16,2.17,2.17,0,0,0,.66-.85c.31-.65.55-1.36.84-2s.59-1.26.94-2c-.25-.12-.49-.23-.73-.33C13.27,25,10.57,23.92,7.9,22.8a1.87,1.87,0,0,1-.9-.87,1.6,1.6,0,0,1,.88-2.2l7.19-2.9C22,14,29,11.22,36,8.45a2.32,2.32,0,0,1,1.64,0Q51.73,14,65.78,19.7a1.87,1.87,0,0,1,.75.47A1.68,1.68,0,0,1,66,22.78c-2.2.91-4.42,1.78-6.62,2.67C52.21,28.33,45,31.22,37.87,34.06a2.63,2.63,0,0,1-1.84,0C32,32.54,28,30.9,24,29.29c-.16-.06-.31-.15-.47-.22l0-.28"/><path class="cls-1" d="M22.34,32.63l11.76,4.73c1.37.55,2.71,1.24,4.21.57,1.75-.78,3.54-1.45,5.31-2.16l7.25-2.91c.16-.07.33-.11.56-.19a48.18,48.18,0,0,1,1.78,8.68,6.83,6.83,0,0,1-.89,3.85,16.79,16.79,0,0,1-4.72,5.47A17.19,17.19,0,0,1,24.18,49.1a19.58,19.58,0,0,1-2.48-3.27,7.75,7.75,0,0,1-1-5.8c.37-1.88.76-3.75,1.16-5.62.12-.57.3-1.13.47-1.78"/></svg>