<svg id="Layer_1" data-name="Layer 1" xmlns="http://www.w3.org/2000/svg" viewBox="0 0 70.87 70.87"><defs><style>.cls-1{fill:#fff;}</style></defs><title>health</title><path class="cls-1" d="M25.25,38.34c.31,1,.58,1.82.85,2.66.69,2.21,1.36,4.43,2.05,6.64a2.38,2.38,0,0,0,4.69-.13q1.85-7.42,3.7-14.84a1.47,1.47,0,0,1,.26-.59c.18.8.37,1.6.54,2.4.34,1.59.67,3.18,1,4.77a2.33,2.33,0,0,0,2.45,2q4.34,0,8.67,0a2.35,2.35,0,1,0,0-4.69c-2.06,0-4.11,0-6.17,0h-.66l-.94-4.36c-.81-3.79-1.62-7.59-2.45-11.38A2.23,2.23,0,0,0,37.3,19,2.2,2.2,0,0,0,35,20.09a3.42,3.42,0,0,0-.39,1q-2.09,8.34-4.17,16.67c0,.15-.09.3-.18.58l-1.61-5.17c-.29-.93-.57-1.87-.87-2.79a2.37,2.37,0,0,0-4.54-.12c-.73,1.94-1.45,3.88-2.15,5.83a.61.61,0,0,1-.7.48q-4.12,0-8.24,0c-.33,0-.56,0-.72-.39C9,30.6,8.73,25,11.91,19.68a15.78,15.78,0,0,1,14-8.07,14.53,14.53,0,0,1,7.8,2.49c.92.56,1.85,1.1,2.77,1.67a2.53,2.53,0,0,0,2.77.05c1-.59,2.09-1.17,3.15-1.74a16.43,16.43,0,0,1,8.41-2.14c6.31.2,10.86,3.12,13.33,9,2.86,6.78,2.16,13.35-1.58,19.63a25.51,25.51,0,0,1-7.75,7.93c-2.84,1.94-5.76,3.75-8.65,5.61-2.58,1.66-5.17,3.31-7.74,5a.82.82,0,0,1-1.07,0A189.34,189.34,0,0,1,19.82,46.32a1.69,1.69,0,0,0-1-.34c-3.79,0-7.57,0-11.36,0a2.33,2.33,0,0,1-2.2-3.43,2.36,2.36,0,0,1,2.28-1.25H22.33a2.36,2.36,0,0,0,2.44-1.65C24.92,39.24,25.06,38.86,25.25,38.34Z"/></svg>