<svg id="Layer_1" data-name="Layer 1" xmlns="http://www.w3.org/2000/svg" viewBox="0 0 70.87 70.87"><defs><style>.cls-1{fill:#d69a28;}</style></defs><title>nutrition</title><path class="cls-1" d="M56.1,56.37c-9.66-14.68-27-4.27-27-4.27l0,.14s12.75,15.22,27,4.31Z"/><path class="cls-1" d="M42.35,44.4c-9.65-14.69-27-4.28-27-4.28l0,.14s12.75,15.22,27,4.32Z"/><path class="cls-1" d="M28.46,32.44c-8.21-12.49-23-3.64-23-3.64l0,.12s10.83,12.95,23,3.67Z"/><path class="cls-1" d="M57.86,54.25C41.95,47.07,49.16,28,49.17,28l.13,0S66.25,38.1,58,54.2Z"/><path class="cls-1" d="M43.9,42.52C28,35.35,35.2,16.24,35.21,16.23l.12,0s17,10.18,8.74,26.27Z"/><path class="cls-1" d="M30,30.66c-13.53-6.11-7.4-22.34-7.4-22.34l.11,0s14.42,8.65,7.43,22.33Z"/><path class="cls-1" d="M20.18,23.62C19.44,10.72,5.06,11,5.06,11L5,11s2.46,14.38,15.1,12.68Z"/><path class="cls-1" d="M59,55.51a9,9,0,0,0,6.88,3l-2,4.07a14.93,14.93,0,0,1-5.8-4.64Z"/></svg>