<svg id="Layer_1" data-name="Layer 1" xmlns="http://www.w3.org/2000/svg" viewBox="0 0 70.87 70.87"><defs><style>.cls-1{fill:#796d65;}</style></defs><title>childcare</title><path class="cls-1" d="M43.21,36.9a6.25,6.25,0,0,0-6.15,6.4,6.79,6.79,0,0,0,7.09,6.89,6.09,6.09,0,0,0,5.9-6.05C50,40,47,36.85,43.21,36.9m.91,15.15c-5.65.23-8.47-3.11-10.92-7a9.81,9.81,0,0,0-1.61-2.37c-.65-.55-1.85-1.15-2.47-.91A2.89,2.89,0,0,0,27.56,44a13.71,13.71,0,0,0,1.38,4.79c.76,1.53.4,2.38-1.06,2.86a15.48,15.48,0,0,1-3.18.58c-1,.11-2,.07-3,.1l-.11.55a10.18,10.18,0,0,0,2.34,1.16c3.18.66,6.38,1.21,9.58,1.75,1.07.18,2.18.11,3.24.32a4.42,4.42,0,0,1,3.64,3.62c.42,1.85-.63,3.12-2,4.16-2.69,2-5.87,1.94-8.94,1.63a25.91,25.91,0,0,1-10.54-3.42c-6.42-3.74-8.78-9.43-6.5-16.37a54.23,54.23,0,0,1,7.94-16,7.28,7.28,0,0,1,6-3.13c6.31.1,12.62.34,18.92.64a7.59,7.59,0,0,1,6,3.6,118.18,118.18,0,0,1,7.18,12.25c2.48,5-.25,10.4-4.76,14.35a11.29,11.29,0,0,1-7.79,3.08,4.72,4.72,0,0,1-4.55-2.49c-.8-1.6.17-3,1.22-4.3.4-.47.84-.91,1.59-1.73"/><path class="cls-1" d="M46.68,15.17a10.55,10.55,0,0,1-21.08.56,10.55,10.55,0,0,1,21.08-.56"/></svg>