<?xml version="1.0" encoding="utf-8"?>
<!-- Generator: Adobe Illustrator 19.0.0, SVG Export Plug-In . SVG Version: 6.00 Build 0)  -->
<svg version="1.1"
	 id="svg4553" sodipodi:docname="New document 5" inkscape:version="0.48.4 r9939" xmlns:sodipodi="http://sodipodi.sourceforge.net/DTD/sodipodi-0.dtd" xmlns:dc="http://purl.org/dc/elements/1.1/" xmlns:cc="http://creativecommons.org/ns#" xmlns:rdf="http://www.w3.org/1999/02/22-rdf-syntax-ns#" xmlns:inkscape="http://www.inkscape.org/namespaces/inkscape" xmlns:svg="http://www.w3.org/2000/svg"
	 xmlns="http://www.w3.org/2000/svg" xmlns:xlink="http://www.w3.org/1999/xlink" x="0px" y="0px" viewBox="-147 255.8 300 330.1"
	 style="enable-background:new -147 255.8 300 330.1;" xml:space="preserve">
<style type="text/css">
	.st0{fill:#FFFFFF;}
</style>
<sodipodi:namedview  id="base" inkscape:window-maximized="1" inkscape:window-y="-8" inkscape:window-x="-8" inkscape:window-height="705" inkscape:pageshadow="2" inkscape:pageopacity="0.0" fit-margin-bottom="2" fit-margin-right="2" inkscape:current-layer="layer1" inkscape:window-width="1366" inkscape:document-units="px" inkscape:zoom="0.98994949" fit-margin-top="2" inkscape:cx="251.3986" borderopacity="1.0" pagecolor="#ffffff" showgrid="false" bordercolor="#666666" inkscape:cy="136.51963" fit-margin-left="2">
	</sodipodi:namedview>
<g id="layer1" transform="translate(-158.17722,-268.67652)" inkscape:groupmode="layer" inkscape:label="Layer 1">
	<g id="g16" transform="matrix(0.99710536,0,0,-0.99710536,-108.72285,721.60266)">
		<g>
			<g id="g18">
				<g id="g24" transform="translate(269.8054,236.7816)">
					<path id="path26" inkscape:connector-curvature="0" class="st0" d="M-147.4-256.6h14.2v-41.1c0-4.6,0.5-8,1.6-10.1
						c1.7-3.8,5.4-5.6,11-5.6s9.3,1.9,11,5.6c1.1,2.1,1.6,5.5,1.6,10.1v41.1h14.2v-41.2c0-7.1-1.1-12.7-3.3-16.6
						c-4.1-7.3-12-10.9-23.5-10.9c-11.6,0-19.4,3.6-23.6,10.9c-2.2,4-3.3,9.5-3.3,16.6v41.2H-147.4z"/>
				</g>
				<g id="g28" transform="translate(337.2309,236.7816)">
					<path id="path30" inkscape:connector-curvature="0" class="st0" d="M-147.4-256.6h13.8v-27.6l25.9,27.6h18.1l-27.5-27.5
						l28.9-39.4h-18l-20.6,29.2l-6.7-6.8v-22.4h-13.8v66.9H-147.4z"/>
				</g>
				<g id="g32" transform="translate(444.9573,201.4949)">
					<path id="path34" inkscape:connector-curvature="0" class="st0" d="M-147.4-256.6c-1.1-0.7-2.2-1.2-3.3-1.6s-2.6-0.8-4.6-1.2
						l-3.9-0.7c-3.6-0.6-6.2-1.4-7.8-2.3c-2.7-1.6-4-4-4-7.2c0-2.9,0.8-5,2.5-6.3c1.6-1.3,3.6-1.9,6-1.9c3.7,0,7.2,1.1,10.3,3.2
						c3.1,2.2,4.8,6.1,4.9,11.8L-147.4-256.6L-147.4-256.6z M-157.8-248.6c3.2,0.4,5.4,0.9,6.8,1.5c2.4,1,3.7,2.6,3.7,4.8
						c0,2.7-0.9,4.5-2.8,5.5c-1.9,1-4.6,1.5-8.3,1.5c-4.1,0-7-1-8.7-3c-1.2-1.5-2-3.5-2.4-6H-186c0.4,5.7,2,10.4,4.8,14
						c4.5,5.7,12.3,8.6,23.3,8.6c7.2,0,13.5-1.4,19.1-4.2s8.3-8.2,8.3-16v-29.9c0-2.1,0-4.6,0.1-7.5c0.1-2.2,0.5-3.7,1-4.5
						c0.6-0.8,1.4-1.5,2.5-2v-2.5h-18.5c-0.5,1.3-0.9,2.6-1.1,3.7c-0.2,1.2-0.4,2.5-0.5,3.9c-2.4-2.6-5.1-4.7-8.2-6.5
						c-3.7-2.1-7.9-3.2-12.5-3.2c-5.9,0-10.8,1.7-14.7,5.1s-5.8,8.1-5.8,14.3c0,8,3.1,13.8,9.3,17.4c3.4,2,8.4,3.3,15.1,4.2
						C-163.7-249.3-157.8-248.6-157.8-248.6z"/>
				</g>
				<path id="path36" inkscape:connector-curvature="0" class="st0" d="M345.3-16H328V1.3h17.3V-16z"/>
				<path id="path38" inkscape:connector-curvature="0" class="st0" d="M328.1-21.6h17.3v-65.2h-17.3V-21.6L328.1-21.6z"/>
				<g id="g40" transform="translate(545.913,187.506)">
					<path id="path42" inkscape:connector-curvature="0" class="st0" d="M-147.4-256.6c2.5,3.6,3.8,8.2,3.8,13.9c0,8-2,13.7-6,17.1
						c-2.5,2.1-5.3,3.1-8.6,3.1c-5,0-8.6-1.9-11-5.6c-2.3-3.8-3.5-8.4-3.5-14c0-6,1.2-10.8,3.6-14.4c2.4-3.6,6-5.4,10.8-5.4
						C-153.6-261.9-149.9-260.1-147.4-256.6 M-151.6-210.1c3.1-1.7,5.6-4.1,7.5-7.2v31.1h17.3v-88h-16.6v9c-2.4-3.9-5.2-6.7-8.3-8.4
						c-3.1-1.8-7-2.6-11.6-2.6c-7.6,0-14,3.1-19.2,9.2c-5.2,6.2-7.8,14.1-7.8,23.7c0,11.1,2.6,19.9,7.7,26.2
						c5.1,6.4,12,9.6,20.5,9.6C-158.2-207.5-154.7-208.4-151.6-210.1"/>
				</g>
				<g id="g46" transform="translate(566.5398,393.1851)">
					<path id="path48" inkscape:connector-curvature="0" class="st0" d="M-147.4-256.6v38.4l-64.3-38.4H-147.4z"/>
				</g>
				<g id="g50" transform="translate(388.4995,452.2122)">
					<path id="path52" inkscape:connector-curvature="0" class="st0" d="M-147.4-256.6h-84.1l84.1-50.2V-256.6z"/>
				</g>
				<g id="g54" transform="translate(269.8062,334.1352)">
					<path id="path56" inkscape:connector-curvature="0" class="st0" d="M-147.4-256.6V-295l64.3,38.4H-147.4z"/>
				</g>
				<g id="g58" transform="translate(447.8464,452.2122)">
					<path id="path60" inkscape:connector-curvature="0" class="st0" d="M-147.4-256.6v-50.2l84.1,50.2H-147.4z"/>
				</g>
				<g id="g62" transform="translate(269.8062,431.5751)">
					<path id="path64" inkscape:connector-curvature="0" class="st0" d="M-147.4-256.6V-295h64.3L-147.4-256.6z"/>
				</g>
				<g id="g66" transform="translate(566.5398,295.7439)">
					<path id="path68" inkscape:connector-curvature="0" class="st0" d="M-147.4-256.6v38.4h-64.3L-147.4-256.6z"/>
				</g>
				<g id="g70" transform="translate(304.4069,275.0852)">
					<path id="path72" inkscape:connector-curvature="0" class="st0" d="M-147.4-256.6h84.1v50.2L-147.4-256.6z"/>
				</g>
				<g id="g74" transform="translate(447.8464,275.0852)">
					<path id="path76" inkscape:connector-curvature="0" class="st0" d="M-147.4-256.6h84.1l-84.1,50.2V-256.6z"/>
				</g>
				<g id="g78" transform="translate(269.8062,275.0852)">
					<path id="path80" inkscape:connector-curvature="0" class="st0" d="M-147.4-256.6l98.9,59.1h19.8v-2l-95.6-57.1H-147.4z
						 M30.6-136.5l95.6,57.1h23.1l-98.9-59.1H30.6V-136.5L30.6-136.5z M73.5-197.5l75.8-45.3v-13.8l-98.9,59.1H73.5z M-71.6-138.5
						l-75.8,45.3v13.8l98.9-59.1C-48.5-138.5-71.6-138.5-71.6-138.5z"/>
				</g>
				<g id="g82" transform="translate(400.3696,275.0852)">
					<path id="path84" inkscape:connector-curvature="0" class="st0" d="M-147.4-256.6v70.9H-278v35.4h130.6v70.9h35.6v-70.9H18.7
						v-35.4h-130.6v-70.9H-147.4z"/>
				</g>
				<g id="g86" transform="translate(269.6807,144.2795)">
					<path id="path88" inkscape:connector-curvature="0" class="st0" d="M-147.4-256.6v2.2h2.6v2.3c0,1.3,0.4,2.2,1.1,2.8
						c0.7,0.6,1.8,1,3.2,1c0.2,0,0.5,0,0.8-0.1c0.3,0,0.6-0.1,0.8-0.2v-2.2c-0.2,0.1-0.5,0.1-0.7,0.2c-0.3,0-0.5,0-0.7,0
						c-0.6,0-1.1-0.1-1.4-0.4c-0.3-0.2-0.5-0.7-0.5-1.4v-2.1h3v-2.2h-3v-13.2h-2.5v13.2h-2.7V-256.6z"/>
				</g>
				<g id="g90" transform="translate(281.9367,146.5173)">
					<path id="path92" inkscape:connector-curvature="0" class="st0" d="M-147.4-256.6v-3.3h0.1c0.6,1.3,1.4,2.2,2.3,2.8
						c0.9,0.6,2,0.9,3.4,0.8v-2.7c-1,0-1.9-0.1-2.6-0.4c-0.7-0.3-1.3-0.7-1.7-1.2s-0.8-1.2-1-2s-0.3-1.6-0.3-2.6v-6.9h-2.5v15.4h2.3
						V-256.6z"/>
				</g>
				<g id="g94" transform="translate(291.3077,136.2988)">
					<path id="path96" inkscape:connector-curvature="0" class="st0" d="M-147.4-256.6c0.2-0.7,0.6-1.3,1-1.8s0.9-0.9,1.5-1.1
						c0.6-0.3,1.2-0.4,1.9-0.4s1.3,0.1,1.9,0.4s1.1,0.6,1.5,1.1s0.8,1.1,1,1.8c0.2,0.7,0.4,1.6,0.4,2.5s-0.1,1.8-0.4,2.5
						c-0.2,0.7-0.6,1.3-1,1.8s-1,0.9-1.5,1.1c-0.6,0.3-1.2,0.4-1.9,0.4s-1.3-0.1-1.9-0.4c-0.6-0.3-1.1-0.6-1.5-1.1s-0.8-1.1-1-1.8
						s-0.4-1.6-0.4-2.5C-147.8-255-147.7-255.8-147.4-256.6 M-150-250.9c0.3,1,0.8,1.8,1.4,2.6c0.6,0.7,1.4,1.3,2.4,1.7
						c0.9,0.4,2,0.6,3.2,0.6s2.3-0.2,3.2-0.6c0.9-0.4,1.7-1,2.3-1.7s1.1-1.6,1.4-2.6c0.3-1,0.5-2,0.5-3.2c0-1.1-0.2-2.2-0.5-3.2
						s-0.8-1.8-1.4-2.6c-0.6-0.7-1.4-1.3-2.3-1.7c-0.9-0.4-2-0.6-3.2-0.6s-2.3,0.2-3.2,0.6s-1.7,1-2.4,1.7c-0.6,0.7-1.1,1.6-1.4,2.6
						c-0.3,1-0.5,2-0.5,3.2S-150.3-251.9-150-250.9"/>
				</g>
				<g id="g98" transform="translate(308.1941,146.5173)">
					<path id="path100" inkscape:connector-curvature="0" class="st0" d="M-147.4-256.6v-2.3h0.1c1.2,1.8,2.8,2.6,5,2.6
						c1,0,1.8-0.2,2.6-0.6s1.3-1.1,1.6-2c0.5,0.8,1.2,1.5,2,1.9c0.8,0.5,1.8,0.7,2.8,0.7c0.8,0,1.5-0.1,2.1-0.3
						c0.6-0.2,1.2-0.4,1.6-0.8c0.4-0.4,0.8-0.8,1-1.4s0.4-1.2,0.4-2V-272h-2.5v10.1c0,0.5,0,0.9-0.1,1.3s-0.2,0.8-0.4,1.1
						c-0.2,0.3-0.5,0.6-0.9,0.7c-0.4,0.2-0.9,0.3-1.5,0.3c-1.3,0-2.2-0.4-3-1.1c-0.7-0.7-1.1-1.7-1.1-2.9v-9.6h-2.5v10.1
						c0,0.5,0,1-0.1,1.4s-0.2,0.8-0.5,1.1c-0.2,0.3-0.5,0.5-0.9,0.7s-0.8,0.3-1.4,0.3c-0.7,0-1.4-0.1-1.9-0.4s-1-0.7-1.3-1.1
						s-0.6-0.9-0.7-1.3c-0.1-0.4-0.2-0.8-0.2-1.1v-9.6h-2.5v15.4H-147.4z"/>
				</g>
				<g id="g102" transform="translate(346.1445,146.5173)">
					<path id="path104" inkscape:connector-curvature="0" class="st0" d="M-147.4-256.6v-2.2h-3.1v-9.6c0-0.3,0-0.5,0.1-0.7
						s0.1-0.3,0.3-0.4c0.1-0.1,0.3-0.2,0.6-0.2c0.2,0,0.6,0,1,0h1.2v-2.2h-1.9c-0.7,0-1.2,0-1.7,0.1s-0.8,0.3-1.1,0.5
						s-0.5,0.6-0.6,1s-0.2,1-0.2,1.7v9.8h-2.6v2.2h2.6v4.6h2.5v-4.6L-147.4-256.6L-147.4-256.6z"/>
				</g>
				<g id="g106" transform="translate(350.8788,152.3951)">
					<path id="path108" inkscape:connector-curvature="0" class="st0" d="M-147.4-256.6v-8.1h0.1c0.2,0.5,0.5,0.9,0.8,1.2
						c0.4,0.3,0.8,0.6,1.2,0.8c0.4,0.2,0.9,0.4,1.4,0.5s1,0.1,1.4,0.1c1,0,1.9-0.1,2.5-0.4c0.7-0.3,1.2-0.7,1.6-1.2
						c0.4-0.5,0.7-1.1,0.9-1.8s0.3-1.4,0.3-2.3v-10.1h-2.5v10.4c0,1-0.3,1.7-0.8,2.3c-0.6,0.6-1.3,0.8-2.3,0.8c-0.8,0-1.4-0.1-2-0.4
						c-0.6-0.2-1-0.6-1.4-1s-0.7-0.9-0.8-1.5c-0.2-0.6-0.3-1.2-0.3-1.9v-8.7h-2.5v21.3L-147.4-256.6L-147.4-256.6z"/>
				</g>
				<g id="g110" transform="translate(374.7647,141.9823)">
					<path id="path112" inkscape:connector-curvature="0" class="st0" d="M-147.4-256.6c-0.2,0.5-0.5,1-0.9,1.4s-0.8,0.7-1.4,0.9
						c-0.5,0.2-1.1,0.3-1.7,0.3c-0.7,0-1.2-0.1-1.8-0.3c-0.5-0.2-1-0.5-1.4-0.9s-0.7-0.9-0.9-1.4s-0.3-1.1-0.4-1.7h8.9
						C-147.1-257.7-147.2-257.1-147.4-256.6 M-146.8-266.5c-1.2-0.9-2.6-1.3-4.4-1.3c-1.2,0-2.3,0.2-3.2,0.6s-1.7,1-2.3,1.7
						s-1.1,1.6-1.4,2.6c-0.3,1-0.5,2.1-0.5,3.3c0,1.2,0.2,2.2,0.5,3.2c0.4,1,0.9,1.8,1.5,2.5s1.4,1.3,2.3,1.7
						c0.9,0.4,1.9,0.6,2.9,0.6c1.4,0,2.5-0.3,3.4-0.9c0.9-0.6,1.6-1.3,2.2-2.2c0.5-0.9,0.9-1.8,1.1-2.9c0.2-1,0.3-2,0.3-3h-11.5
						c0-0.7,0.1-1.3,0.2-1.9c0.2-0.6,0.5-1.1,0.9-1.6s0.9-0.8,1.5-1.1c0.6-0.3,1.3-0.4,2.2-0.4c1.1,0,2,0.2,2.6,0.7
						c0.7,0.5,1.1,1.3,1.4,2.3h2.5C-144.9-264.3-145.7-265.6-146.8-266.5"/>
				</g>
				<g id="g114" transform="translate(399.1249,133.4798)">
					<path id="path116" inkscape:connector-curvature="0" class="st0" d="M-147.4-256.6c1.3,0,2.2,0.3,2.9,1
						c0.7,0.7,1.1,1.6,1.1,2.8c0,0.7-0.1,1.3-0.4,1.7c-0.3,0.5-0.6,0.8-1,1.1s-0.9,0.5-1.5,0.6s-1.1,0.2-1.7,0.2h-6.5v-7.4H-147.4z
						 M-148.9-246.8c1.6,0,2.8,0.3,3.5,0.9c0.7,0.6,1.1,1.4,1.1,2.6c0,0.8-0.1,1.4-0.4,1.8c-0.2,0.4-0.6,0.8-1,1s-0.9,0.4-1.4,0.5
						s-1.1,0.1-1.7,0.1h-5.7v-6.8C-154.5-246.8-148.9-246.8-148.9-246.8z M-149.6-237.6c0.5,0,0.9,0,1.5,0c0.5,0,1,0,1.6-0.1
						c0.5-0.1,1-0.1,1.4-0.2c0.4-0.1,0.8-0.2,1.1-0.4c0.7-0.4,1.3-1,1.8-1.7s0.7-1.6,0.7-2.7c0-1.1-0.3-2.1-0.8-2.9
						c-0.5-0.8-1.3-1.4-2.3-1.8v-0.1c1.3-0.3,2.3-0.9,3-1.8c0.7-0.9,1-2,1-3.3c0-0.8-0.1-1.5-0.4-2.3c-0.3-0.7-0.7-1.4-1.2-2
						s-1.2-1-2-1.4c-0.8-0.3-1.7-0.5-2.8-0.5h-10.3v21.3L-149.6-237.6L-149.6-237.6z"/>
				</g>
				<g id="g118" transform="translate(411.1428,146.5173)">
					<path id="path120" inkscape:connector-curvature="0" class="st0" d="M-147.4-256.6v-3.3h0.1c0.6,1.3,1.4,2.2,2.3,2.8
						c0.9,0.6,2,0.9,3.4,0.8v-2.7c-1,0-1.9-0.1-2.6-0.4c-0.7-0.3-1.3-0.7-1.7-1.2s-0.8-1.2-1-2s-0.3-1.6-0.3-2.6v-6.9h-2.5v15.4h2.3
						V-256.6z"/>
				</g>
				<path id="path122" inkscape:connector-curvature="0" class="st0" d="M273.7-125.5h-2.5v15.4h2.5V-125.5z M271.1-104.2h2.5v-3.1
					h-2.5V-104.2z"/>
				<g id="g124" transform="translate(431.1612,146.5173)">
					<path id="path126" inkscape:connector-curvature="0" class="st0" d="M-147.4-256.6v-2.2h-3.1v-9.6c0-0.3,0-0.5,0.1-0.7
						s0.1-0.3,0.3-0.4c0.1-0.1,0.3-0.2,0.6-0.2c0.2,0,0.6,0,1,0h1.2v-2.2h-1.9c-0.7,0-1.2,0-1.7,0.1s-0.8,0.3-1.1,0.5
						s-0.5,0.6-0.6,1s-0.2,1-0.2,1.7v9.8h-2.6v2.2h2.6v4.6h2.5v-4.6L-147.4-256.6L-147.4-256.6z"/>
				</g>
				<path id="path128" inkscape:connector-curvature="0" class="st0" d="M288.6-125.5h-2.5v15.4h2.5V-125.5z M286.1-104.2h2.5v-3.1
					h-2.5V-104.2z"/>
				<g id="g130" transform="translate(441.5377,134.5389)">
					<path id="path132" inkscape:connector-curvature="0" class="st0" d="M-147.4-256.6c0.2-0.4,0.6-0.7,0.9-0.9
						c0.4-0.2,0.8-0.4,1.3-0.5s1-0.2,1.5-0.2c0.4,0,0.8,0,1.3,0.1c0.4,0.1,0.8,0.2,1.2,0.3c0.4,0.2,0.7,0.4,0.9,0.7
						c0.2,0.3,0.4,0.7,0.4,1.2c0,0.7-0.2,1.2-0.7,1.5s-1.1,0.6-1.9,0.8c-0.7,0.2-1.6,0.4-2.4,0.6c-0.9,0.2-1.7,0.4-2.4,0.7
						s-1.4,0.7-1.9,1.3s-0.7,1.3-0.7,2.3c0,0.8,0.2,1.4,0.5,2s0.8,1,1.3,1.4c0.5,0.3,1.2,0.6,1.9,0.8s1.4,0.3,2,0.3
						c0.9,0,1.7-0.1,2.4-0.2c0.7-0.2,1.4-0.4,2-0.8c0.6-0.4,1-0.9,1.4-1.5c0.3-0.6,0.5-1.4,0.6-2.3h-2.5c0,0.5-0.2,0.9-0.4,1.2
						s-0.5,0.6-0.8,0.8s-0.7,0.3-1.1,0.4c-0.4,0.1-0.8,0.1-1.2,0.1s-0.8,0-1.1-0.1c-0.4-0.1-0.7-0.2-1.1-0.3
						c-0.3-0.1-0.6-0.3-0.8-0.6c-0.2-0.2-0.3-0.6-0.3-1s0.2-0.8,0.5-1.1s0.7-0.5,1.2-0.7s1-0.3,1.6-0.5c0.6-0.1,1.2-0.3,1.8-0.4
						c0.6-0.1,1.3-0.3,1.9-0.5c0.6-0.2,1.1-0.5,1.6-0.8s0.8-0.7,1.1-1.2s0.4-1.1,0.4-1.9c0-0.9-0.2-1.7-0.6-2.3
						c-0.4-0.6-0.9-1.1-1.5-1.5s-1.3-0.6-2.1-0.8c-0.8-0.1-1.6-0.2-2.3-0.2c-0.9,0-1.7,0.1-2.4,0.3c-0.8,0.2-1.5,0.5-2.1,0.9
						s-1.1,0.9-1.4,1.6c-0.4,0.7-0.6,1.5-0.6,2.4h2.5C-147.8-255.7-147.7-256.2-147.4-256.6"/>
				</g>
				<g id="g134" transform="translate(456.6909,152.3951)">
					<path id="path136" inkscape:connector-curvature="0" class="st0" d="M-147.4-256.6v-8.1h0.1c0.2,0.5,0.5,0.9,0.8,1.2
						c0.4,0.3,0.8,0.6,1.2,0.8c0.4,0.2,0.9,0.4,1.4,0.5s1,0.1,1.4,0.1c1,0,1.9-0.1,2.5-0.4c0.7-0.3,1.2-0.7,1.6-1.2
						c0.4-0.5,0.7-1.1,0.9-1.8c0.2-0.7,0.3-1.4,0.3-2.3v-10.1h-2.5v10.4c0,1-0.3,1.7-0.8,2.3c-0.6,0.6-1.3,0.8-2.3,0.8
						c-0.8,0-1.4-0.1-2-0.4c-0.6-0.2-1-0.6-1.4-1s-0.7-0.9-0.9-1.5s-0.3-1.2-0.3-1.9v-8.7h-2.5v21.3L-147.4-256.6L-147.4-256.6z"/>
				</g>
				<g id="g138" transform="translate(490.7775,141.0428)">
					<path id="path140" inkscape:connector-curvature="0" class="st0" d="M-147.4-256.6c-0.2,0.7-0.5,1.3-0.9,1.8s-0.9,1-1.5,1.3
						s-1.3,0.5-2.1,0.5c-0.9,0-1.6-0.2-2.2-0.5c-0.6-0.3-1.1-0.8-1.5-1.3s-0.7-1.2-0.8-1.9c-0.2-0.7-0.3-1.4-0.3-2.1
						c0-0.8,0.1-1.5,0.3-2.2s0.5-1.3,0.9-1.9c0.4-0.5,0.9-1,1.5-1.3s1.4-0.5,2.2-0.5s1.6,0.2,2.2,0.5c0.6,0.3,1.1,0.8,1.4,1.3
						s0.6,1.2,0.8,1.9c0.2,0.7,0.2,1.5,0.2,2.2C-147.1-257.9-147.2-257.2-147.4-256.6 M-156.5-251.1v-2.1h0.1c0.4,0.9,1.1,1.5,2,1.9
						s1.9,0.6,3,0.6c1.2,0,2.2-0.2,3.1-0.7c0.9-0.4,1.6-1,2.2-1.8c0.6-0.7,1-1.6,1.3-2.6c0.3-1,0.4-2,0.4-3.1s-0.1-2.1-0.4-3.1
						c-0.3-1-0.7-1.8-1.3-2.5s-1.3-1.3-2.2-1.7c-0.9-0.4-1.9-0.6-3.1-0.6c-0.4,0-0.8,0-1.3,0.1s-0.9,0.2-1.4,0.4
						c-0.5,0.2-0.9,0.4-1.3,0.7c-0.4,0.3-0.8,0.7-1,1.1h-0.1v-7.9h-2.5v21.3C-159.1-251.1-156.5-251.1-156.5-251.1z"/>
				</g>
				<g id="g142" transform="translate(506.6433,141.9823)">
					<path id="path144" inkscape:connector-curvature="0" class="st0" d="M-147.4-256.6c-0.2,0.5-0.5,1-0.9,1.4s-0.8,0.7-1.4,0.9
						c-0.5,0.2-1.1,0.3-1.7,0.3c-0.7,0-1.2-0.1-1.8-0.3c-0.5-0.2-1-0.5-1.4-0.9s-0.7-0.9-0.9-1.4s-0.3-1.1-0.4-1.7h8.9
						C-147.1-257.7-147.2-257.1-147.4-256.6 M-146.8-266.5c-1.2-0.9-2.6-1.3-4.4-1.3c-1.2,0-2.3,0.2-3.2,0.6s-1.7,1-2.3,1.7
						s-1.1,1.6-1.4,2.6c-0.3,1-0.5,2.1-0.5,3.3c0,1.2,0.2,2.2,0.5,3.2c0.4,1,0.9,1.8,1.5,2.5s1.4,1.3,2.3,1.7
						c0.9,0.4,1.9,0.6,2.9,0.6c1.4,0,2.5-0.3,3.4-0.9c0.9-0.6,1.6-1.3,2.2-2.2c0.5-0.9,0.9-1.8,1.1-2.9c0.2-1,0.3-2,0.3-3h-11.5
						c0-0.7,0.1-1.3,0.2-1.9c0.2-0.6,0.5-1.1,0.9-1.6s0.9-0.8,1.5-1.1c0.6-0.3,1.3-0.4,2.2-0.4c1.1,0,2,0.2,2.6,0.7
						c0.7,0.5,1.1,1.3,1.4,2.3h2.5C-144.9-264.3-145.7-265.6-146.8-266.5"/>
				</g>
				<g id="g146" transform="translate(514.394,136.2988)">
					<path id="path148" inkscape:connector-curvature="0" class="st0" d="M-147.4-256.6c0.2-0.7,0.6-1.3,1-1.8s0.9-0.9,1.5-1.1
						c0.6-0.3,1.2-0.4,1.9-0.4s1.3,0.1,1.9,0.4c0.6,0.3,1.1,0.6,1.5,1.1s0.8,1.1,1,1.8c0.2,0.7,0.4,1.6,0.4,2.5s-0.1,1.8-0.4,2.5
						c-0.2,0.7-0.6,1.3-1,1.8s-1,0.9-1.5,1.1c-0.6,0.3-1.2,0.4-1.9,0.4s-1.3-0.1-1.9-0.4c-0.6-0.3-1.1-0.6-1.5-1.1s-0.8-1.1-1-1.8
						s-0.4-1.6-0.4-2.5C-147.8-255-147.7-255.8-147.4-256.6 M-150-250.9c0.3,1,0.8,1.8,1.4,2.6c0.6,0.7,1.4,1.3,2.4,1.7
						c0.9,0.4,2,0.6,3.2,0.6s2.3-0.2,3.2-0.6c0.9-0.4,1.7-1,2.3-1.7s1.1-1.6,1.4-2.6c0.3-1,0.5-2,0.5-3.2c0-1.1-0.2-2.2-0.5-3.2
						s-0.8-1.8-1.4-2.6c-0.6-0.7-1.4-1.3-2.3-1.7c-0.9-0.4-2-0.6-3.2-0.6s-2.3,0.2-3.2,0.6s-1.7,1-2.4,1.7c-0.6,0.7-1.1,1.6-1.4,2.6
						c-0.3,1-0.5,2-0.5,3.2S-150.3-251.9-150-250.9"/>
				</g>
				<g id="g150" transform="translate(540.5862,141.0428)">
					<path id="path152" inkscape:connector-curvature="0" class="st0" d="M-147.4-256.6c-0.2,0.7-0.5,1.3-0.9,1.8s-0.9,1-1.5,1.3
						s-1.3,0.5-2.1,0.5c-0.9,0-1.6-0.2-2.2-0.5c-0.6-0.3-1.1-0.8-1.5-1.3s-0.7-1.2-0.8-1.9c-0.2-0.7-0.3-1.4-0.3-2.1
						c0-0.8,0.1-1.5,0.3-2.2s0.5-1.3,0.8-1.9c0.4-0.5,0.9-1,1.5-1.3s1.4-0.5,2.2-0.5s1.6,0.2,2.2,0.5c0.6,0.3,1.1,0.8,1.4,1.3
						s0.6,1.2,0.8,1.9c0.2,0.7,0.2,1.5,0.2,2.2C-147.1-257.9-147.2-257.2-147.4-256.6 M-156.5-251.1v-2.1h0.1c0.4,0.9,1.1,1.5,2,1.9
						s1.9,0.6,3,0.6c1.2,0,2.2-0.2,3.1-0.7c0.9-0.4,1.6-1,2.2-1.8c0.6-0.7,1-1.6,1.3-2.6c0.3-1,0.4-2,0.4-3.1s-0.1-2.1-0.4-3.1
						c-0.3-1-0.7-1.8-1.3-2.5s-1.3-1.3-2.2-1.7c-0.9-0.4-1.9-0.6-3.1-0.6c-0.4,0-0.8,0-1.3,0.1s-0.9,0.2-1.4,0.4
						c-0.5,0.2-0.9,0.4-1.3,0.7c-0.4,0.3-0.8,0.7-1,1.1h-0.1v-7.9h-2.5v21.3C-159.1-251.1-156.5-251.1-156.5-251.1z"/>
				</g>
				<path id="path154" inkscape:connector-curvature="0" class="st0" d="M401.3-125.5h-2.5v21.3h2.5V-125.5z"/>
				<g id="g156" transform="translate(562.5829,141.9823)">
					<path id="path158" inkscape:connector-curvature="0" class="st0" d="M-147.4-256.6c-0.2,0.5-0.5,1-0.9,1.4s-0.8,0.7-1.4,0.9
						c-0.5,0.2-1.1,0.3-1.7,0.3c-0.7,0-1.2-0.1-1.8-0.3c-0.5-0.2-1-0.5-1.4-0.9s-0.7-0.9-0.9-1.4s-0.3-1.1-0.4-1.7h8.9
						C-147.1-257.7-147.2-257.1-147.4-256.6 M-146.8-266.5c-1.2-0.9-2.6-1.3-4.4-1.3c-1.2,0-2.3,0.2-3.2,0.6s-1.7,1-2.3,1.7
						s-1.1,1.6-1.4,2.6c-0.3,1-0.5,2.1-0.5,3.3c0,1.2,0.2,2.2,0.5,3.2c0.4,1,0.9,1.8,1.5,2.5s1.4,1.3,2.3,1.7
						c0.9,0.4,1.9,0.6,2.9,0.6c1.4,0,2.5-0.3,3.4-0.9c0.9-0.6,1.6-1.3,2.2-2.2c0.5-0.9,0.9-1.8,1.1-2.9c0.2-1,0.3-2,0.3-3h-11.5
						c0-0.7,0.1-1.3,0.2-1.9c0.2-0.6,0.5-1.1,0.9-1.6s0.9-0.8,1.5-1.1c0.6-0.3,1.3-0.4,2.2-0.4c1.1,0,2,0.2,2.6,0.7
						c0.7,0.5,1.1,1.3,1.4,2.3h2.5C-144.9-264.3-145.7-265.6-146.8-266.5"/>
				</g>
			</g>
		</g>
	</g>
</g>
</svg>
