<svg id="Layer_1" data-name="Layer 1" xmlns="http://www.w3.org/2000/svg" viewBox="0 0 70.87 70.87"><defs><style>.cls-1{fill:#8a85bf;}</style></defs><title>water</title><path class="cls-1" d="M33.72,60.84h-.59c-6.07-.23-11.18-5.3-11.86-11.78-.05-.5-.08-1-.09-1.5a1.65,1.65,0,0,1,1.53-1.78,1.62,1.62,0,0,1,1.64,1.7,10.33,10.33,0,0,0,1.25,5,9,9,0,0,0,7.85,5,1.67,1.67,0,0,1,1.7,1.21,1.69,1.69,0,0,1-1.44,2.21m20-16.62a30,30,0,0,0-2.32-8.72A67.41,67.41,0,0,0,47,26.93c-2.29-3.89-4.65-7.75-6.94-11.64a50.52,50.52,0,0,1-3.58-6.91,12.21,12.21,0,0,1-1-3.39l-.08.26c-.27.83-.52,1.67-.82,2.48a57.21,57.21,0,0,1-4.34,8.78Q26.63,22.68,23,28.81a49.87,49.87,0,0,0-4.47,9.45,23.56,23.56,0,0,0-1.25,11.26,18.82,18.82,0,0,0,9.54,14.17A17.35,17.35,0,0,0,38.7,65.56a17.76,17.76,0,0,0,12.1-8.22,19.87,19.87,0,0,0,2.94-13.12"/></svg>